<svg height="24" width="24" xmlns="http://www.w3.org/2000/svg"><g transform="translate(0 -1028.4)"><path d="m18 1040.4c.552 0 1 .4 1 1v2 4 2c0 .5-.448 1-1 1h-1v-2-6-2z" fill="#f39c12"/><path d="m18 1050.4c.552 0 1-.5 1-1v-2-2h-2v3 2z" fill="#e67e22"/><path d="m6 1040.4c-.5523 0-1 .4-1 1v2 4 2c0 .5.4477 1 1 1h1v-2-6-2z" fill="#f39c12"/><path d="m2 1036.4v2.1c-.5864.2-1 .7-1 1.4 0 .8.6716 1.5 1.5 1.5h.0625l2.4375 4.2v-2.7l-1.25-2.2c.1617-.2.25-.5.25-.8 0-.7-.4136-1.2-1-1.4v-2.1z" fill="#2c3e50"/><path d="m7 1039.4v2 8 2h1 .5c.8284 0 1.5-.7 1.5-1.5v-2-.5-2-2-.5-2c0-.9-.6716-1.5-1.5-1.5h-.5z" fill="#34495e"/><path d="m7 1051.4v-2-4h3v2 .5 2c0 .8-.6716 1.5-1.5 1.5h-.5z" fill="#2c3e50"/><path d="m6 1039.4h2v12h-2z" fill="#f1c40f"/><path d="m11 1028.4c-3.9386-.1-7.7917 2.9-9.625 7.4-.3654 1.5 1.493 2.2 1.9062.8 1.5659-3.5 4.6299-5.7 7.7188-5.7h2c3.089 0 6.153 2.2 7.719 5.7.413 1.4 2.271.7 1.906-.8-1.833-4.5-5.686-7.5-9.625-7.4z" fill="#34495e"/><path d="m17 1039.4v2 8 2h-1-.5c-.828 0-1.5-.7-1.5-1.5v-2-.5-2-2-.5-2c0-.9.672-1.5 1.5-1.5h.5z" fill="#34495e"/><path d="m17 1051.4v-2-4h-3v2 .5 2c0 .8.672 1.5 1.5 1.5h.5z" fill="#2c3e50"/><path d="m-18 1039.4h2v12h-2z" fill="#f1c40f" transform="scale(-1 1)"/><path d="m11 1029.9c-3.8041 0-7.5045 2.8-9.4062 7 .4579.6 1.4033.6 1.6874-.4 1.5659-3.4 4.6299-5.6 7.7188-5.6h2c3.089 0 6.153 2.2 7.719 5.6.284 1 1.229 1 1.687.4-1.901-4.2-5.602-7-9.406-7z" fill="#2c3e50"/><path d="m6 1050.4c-.5523 0-1-.5-1-1v-2-2h2v3 2z" fill="#e67e22"/><path d="m6 1045.4h2v6h-2z" fill="#f39c12"/><path d="m16 1045.4h2v6h-2z" fill="#f39c12"/><path d="m22 1036.4v2.1c.586.2 1 .7 1 1.4 0 .8-.672 1.5-1.5 1.5h-.062l-2.438 4.2v-2.7l1.25-2.2c-.162-.2-.25-.5-.25-.8 0-.7.414-1.2 1-1.4v-2.1z" fill="#2c3e50"/><g fill="#7f8c8d"><path d="m3 11.5a.5.5 0 1 1 -1 0 .5.5 0 1 1 1 0z" transform="translate(0 1028.4)"/><path d="m3 11.5a.5.5 0 1 1 -1 0 .5.5 0 1 1 1 0z" transform="translate(19 1028.4)"/></g></g></svg>