<?xml version="1.0" encoding="utf-8"?>
<!-- Generator: Adobe Illustrator 27.5.0, SVG Export Plug-In . SVG Version: 6.00 Build 0)  -->
<svg version="1.1" xmlns="http://www.w3.org/2000/svg" xmlns:xlink="http://www.w3.org/1999/xlink" x="0px" y="0px"
	 viewBox="0 0 1122 1122" style="enable-background:new 0 0 1122 1122;" xml:space="preserve">
<g id="Bg">
	<g>
		<g>
			<rect style="fill:#FFFFFF;" width="1122" height="1122"/>
		</g>
	</g>
</g>
<g id="Object">
	<g>
		<path style="fill:#616E7D;" d="M745.073,617.699v263.043c32.7-0.399,61.036-18.931,75.433-46.004
			c2.664,1.625,5.731,2.702,9.181,2.696h3.643c6.3,0.006,11.548-3.443,14.695-7.698c3.208-4.303,4.896-9.629,4.926-15.336v-21.158
			v-31.682V563.433h-9.75c-5.278,0-9.526-4.333-9.471-9.62c0.03-1.05,0.03-2.133,0.03-3.187
			c0-150.663-122.141-272.787-272.796-272.787c-150.648,0-272.791,122.125-272.791,272.787c0,1.054,0,2.137,0.024,3.187
			c0.073,5.286-4.182,9.62-9.484,9.62h-9.719v250.967c0.019,5.707,1.676,11.033,4.915,15.336c3.147,4.255,8.394,7.704,14.688,7.698
			h3.656c3.165,0.006,6.046-0.868,8.551-2.26c14.465,26.841,42.716,45.17,75.282,45.569V617.699
			c-25.661,0.312-48.544,11.811-64.225,29.764V572.68c7.977-1.54,13.931-8.249,14.706-16.395l0.182-0.884l-0.024-2.893
			c0-64.705,26.206-123.193,68.606-165.608c42.413-42.404,100.925-68.597,165.633-68.606
			c64.696,0.009,123.183,26.202,165.609,68.606c42.406,42.416,68.594,100.921,68.594,165.624v1.964v0.085
			c0.018,8.902,6.331,16.449,14.888,18.107v75.675C794.391,629.875,771.127,618.014,745.073,617.699z"/>
		<path style="fill:#AAD4C8;" d="M843.201,563.433h9.75h8.679c5.18,0,9.435-4.155,9.525-9.338c0.019-1.159,0.019-2.306,0.019-3.468
			c0-171.333-138.9-310.222-310.211-310.222c-171.321,0-310.228,138.889-310.228,310.222c0,1.162,0.024,2.309,0.048,3.468
			c0.085,5.183,4.309,9.338,9.502,9.338h8.709h9.719c5.302,0,9.556-4.333,9.484-9.62c-0.024-1.05-0.024-2.133-0.024-3.187
			c0-150.663,122.143-272.787,272.791-272.787c150.655,0,272.796,122.125,272.796,272.787c0,1.054,0,2.137-0.03,3.187
			C833.675,559.1,837.924,563.433,843.201,563.433z"/>
		<path style="fill:#616E7D;" d="M234.098,765.65c0,17.348,13.956,31.435,31.283,31.64v-96.137
			c-17.327,0.212-31.283,14.289-31.283,31.652V765.65z"/>
		<path style="fill:#616E7D;" d="M856.618,797.291c17.309-0.206,31.284-14.292,31.284-31.64v-32.845
			c0-17.363-13.975-31.44-31.284-31.652V797.291z"/>
		<path style="fill:#82BFAB;" d="M381.689,617.657v263.939h31.883c5.005,0,9.036-4.042,9.036-9.018V626.671
			c0-4.984-4.031-9.014-9.036-9.014H381.689z"/>
		<path style="fill:#82BFAB;" d="M697.994,626.671v245.907c0,4.975,4.031,9.018,9.011,9.018h31.907V617.657h-31.907
			C702.025,617.657,697.994,621.687,697.994,626.671z"/>
	</g>
</g>
</svg>
